<svg width="152" height="48" viewBox="0 0 152 48" fill="none" xmlns="http://www.w3.org/2000/svg">
<path fill-rule="evenodd" clip-rule="evenodd" d="M148.345 22.8144C148.022 22.8153 147.702 22.7524 147.404 22.6292C147.106 22.506 146.835 22.325 146.607 22.0966C146.379 21.8681 146.198 21.5968 146.075 21.2982C145.952 20.9996 145.89 20.6797 145.891 20.3568C145.891 19.008 146.977 17.8848 148.359 17.8848C148.682 17.8838 149.002 17.9468 149.3 18.07C149.598 18.1932 149.869 18.3742 150.097 18.6026C150.325 18.8311 150.506 19.1024 150.629 19.401C150.752 19.6996 150.814 20.0195 150.813 20.3424C150.813 20.9976 150.553 21.626 150.09 22.0895C149.627 22.553 149 22.8138 148.345 22.8144ZM148.359 18.1296C148.067 18.1273 147.777 18.1835 147.507 18.2948C147.236 18.4061 146.991 18.5703 146.785 18.7778C146.579 18.9852 146.417 19.2318 146.307 19.5029C146.198 19.7741 146.143 20.0644 146.147 20.3568C146.147 21.5808 147.093 22.5672 148.345 22.5672C148.637 22.5691 148.926 22.5128 149.196 22.4015C149.466 22.2903 149.711 22.1263 149.917 21.9191C150.123 21.712 150.286 21.4659 150.395 21.1951C150.505 20.9244 150.56 20.6345 150.556 20.3424C150.561 20.0518 150.507 19.7632 150.399 19.4936C150.29 19.2241 150.129 18.979 149.924 18.7728C149.719 18.5666 149.475 18.4035 149.206 18.293C148.938 18.1826 148.65 18.127 148.359 18.1296ZM148.901 20.5944L149.597 21.5688H149.012L148.388 20.676H147.848V21.5688H147.359V18.9888H148.51C149.108 18.9888 149.501 19.296 149.501 19.812C149.501 20.2344 149.256 20.4936 148.901 20.5944ZM148.489 19.4304H147.848V20.2464H148.489C148.808 20.2464 148.997 20.0904 148.997 19.8384C148.997 19.5744 148.805 19.4304 148.489 19.4304ZM117.775 10.9824C117.111 10.9821 116.475 11.2455 116.005 11.7147C115.536 12.1839 115.272 12.8205 115.272 13.4844C115.271 14.1483 115.535 14.7851 116.004 15.2548C116.473 15.7244 117.109 15.9885 117.772 15.9888C118.436 15.9888 119.073 15.7249 119.542 15.2553C120.012 14.7856 120.276 14.1486 120.276 13.4844C120.276 12.8202 120.012 12.1832 119.542 11.7135C119.073 11.2439 118.436 10.98 117.772 10.98L117.775 10.9824ZM119.5 17.916H116.012C115.944 17.9166 115.879 17.944 115.832 17.9921C115.784 18.0401 115.757 18.1051 115.757 18.1728V33.4032C115.757 33.5472 115.87 33.66 116.012 33.66H119.502C119.57 33.66 119.635 33.6329 119.683 33.5848C119.732 33.5366 119.759 33.4713 119.759 33.4032V18.1728C119.759 18.1047 119.732 18.0394 119.683 17.9912C119.635 17.9431 119.57 17.916 119.502 17.916H119.5ZM127.257 17.9304V17.4504C127.257 16.0296 127.802 15.396 129.023 15.396C129.749 15.396 130.332 15.54 130.99 15.7608C131.028 15.7739 131.069 15.7775 131.11 15.7713C131.15 15.7652 131.188 15.7495 131.221 15.7255C131.254 15.7015 131.281 15.6699 131.299 15.6335C131.317 15.597 131.326 15.5567 131.326 15.516V12.576C131.325 12.521 131.307 12.4676 131.275 12.4235C131.242 12.3795 131.196 12.3471 131.143 12.3312C130.203 12.0438 129.224 11.9029 128.241 11.9136C125.019 11.9136 123.316 13.7304 123.316 17.1648V17.904H121.639C121.572 17.904 121.507 17.9307 121.459 17.9784C121.411 18.026 121.383 18.0907 121.383 18.1584V21.1752C121.383 21.3168 121.498 21.432 121.639 21.432H123.316V33.408C123.316 33.5472 123.429 33.6624 123.57 33.6624H127.06C127.128 33.6618 127.193 33.6344 127.24 33.5863C127.288 33.5382 127.315 33.4733 127.315 33.4056V21.4296H130.572L135.564 33.4056C134.998 34.6608 134.441 34.9128 133.681 34.9128C133.065 34.9128 132.417 34.728 131.755 34.3656C131.724 34.3492 131.691 34.339 131.656 34.3357C131.621 34.3324 131.587 34.336 131.553 34.3464C131.52 34.3578 131.489 34.3761 131.463 34.4C131.437 34.424 131.416 34.4532 131.402 34.4856L130.22 37.08C130.192 37.1386 130.188 37.2054 130.208 37.267C130.228 37.3285 130.271 37.3801 130.328 37.4112C131.563 38.0808 132.678 38.3664 134.055 38.3664C136.632 38.3664 138.056 37.1664 139.311 33.9336L145.365 18.2808C145.381 18.242 145.387 18.1999 145.383 18.1583C145.379 18.1166 145.364 18.0767 145.34 18.042C145.317 18.0073 145.285 17.979 145.248 17.9595C145.211 17.9401 145.17 17.9301 145.128 17.9304H141.496C141.443 17.9309 141.392 17.9478 141.349 17.9788C141.306 18.0097 141.274 18.0532 141.256 18.1032L137.534 28.7376L133.456 18.096C133.438 18.0475 133.405 18.0057 133.363 17.9761C133.32 17.9465 133.27 17.9306 133.218 17.9304H127.257ZM113.879 17.916H110.041V13.9872C110.041 13.9536 110.035 13.9203 110.022 13.8893C110.009 13.8583 109.99 13.8301 109.966 13.8065C109.942 13.7828 109.914 13.7641 109.883 13.7515C109.851 13.7388 109.818 13.7325 109.785 13.7328H106.294C106.227 13.7334 106.163 13.7604 106.115 13.808C106.068 13.8556 106.041 13.9199 106.04 13.9872V17.916H104.361C104.327 17.916 104.294 17.9227 104.263 17.9356C104.232 17.9485 104.204 17.9675 104.18 17.9914C104.157 18.0152 104.138 18.0436 104.125 18.0747C104.113 18.1058 104.106 18.1392 104.107 18.1728V21.1728C104.107 21.3144 104.222 21.4296 104.361 21.4296H106.04V29.1912C106.04 32.3304 107.599 33.9192 110.679 33.9192C111.931 33.9192 112.968 33.6624 113.946 33.108C113.986 33.0857 114.019 33.0533 114.042 33.014C114.064 32.9748 114.076 32.9302 114.076 32.8848V30.0288C114.077 29.985 114.066 29.9418 114.045 29.9033C114.024 29.8649 113.993 29.8325 113.956 29.8093C113.919 29.7861 113.877 29.773 113.833 29.771C113.789 29.7691 113.746 29.7786 113.707 29.7984C113.035 30.1368 112.385 30.2928 111.658 30.2928C110.538 30.2928 110.039 29.7864 110.039 28.6464V21.4296H113.877C113.911 21.4299 113.944 21.4235 113.975 21.4107C114.007 21.3979 114.035 21.379 114.059 21.3551C114.083 21.3312 114.102 21.3027 114.115 21.2714C114.127 21.2401 114.134 21.2066 114.134 21.1728V18.1728C114.134 18.1392 114.127 18.1058 114.115 18.0747C114.102 18.0436 114.084 18.0152 114.06 17.9914C114.036 17.9675 114.008 17.9485 113.977 17.9356C113.946 17.9227 113.913 17.916 113.879 17.916ZM95.4783 17.5968C90.7767 17.5968 87.0898 21.2208 87.0898 25.8456C87.0898 30.4224 90.7503 34.0056 95.4207 34.0056C100.139 34.0056 103.836 30.396 103.836 25.788C103.836 21.1944 100.165 17.5968 95.4783 17.5968ZM95.4783 30.4656C92.9763 30.4656 91.0885 28.4544 91.0885 25.7856C91.0885 23.1096 92.9116 21.168 95.4207 21.168C97.9394 21.168 99.8344 23.1792 99.8344 25.848C99.8344 28.524 98.0042 30.4656 95.4783 30.4656ZM78.6533 17.5968C76.6863 17.5968 75.0743 18.372 73.7454 19.9584V18.1728C73.7454 18.1051 73.7187 18.0401 73.6711 17.9921C73.6235 17.944 73.5588 17.9166 73.4911 17.916H70.0009C69.9333 17.9166 69.8686 17.944 69.821 17.9921C69.7734 18.0401 69.7466 18.1051 69.7467 18.1728V38.0208C69.7467 38.16 69.8618 38.2752 70.0009 38.2752H73.4911C73.5584 38.2746 73.6227 38.2476 73.6702 38.2C73.7178 38.1524 73.7448 38.0881 73.7454 38.0208V31.7568C75.0767 33.2472 76.6887 33.9768 78.6533 33.9768C82.3042 33.9768 86.0007 31.164 86.0007 25.788C86.0007 20.412 82.3066 17.5968 78.6533 17.5968ZM81.9444 25.788C81.9444 28.524 80.2581 30.4368 77.8449 30.4368C75.4581 30.4368 73.659 28.4376 73.659 25.788C73.659 23.1384 75.4581 21.1392 77.8449 21.1392C80.2197 21.1392 81.9468 23.0928 81.9468 25.788H81.9444ZM61.7084 21.444C57.8128 20.5128 57.1195 19.86 57.1195 18.4896C57.1195 17.1936 58.3381 16.3224 60.1516 16.3224C61.9075 16.3224 63.6514 16.9824 65.4768 18.3456C65.5041 18.3657 65.535 18.3802 65.5678 18.3883C65.6007 18.3965 65.6348 18.398 65.6682 18.3929C65.7017 18.3877 65.7337 18.376 65.7627 18.3584C65.7916 18.3409 65.8167 18.3177 65.8366 18.2904L67.7413 15.6048C67.7783 15.5517 67.7939 15.4867 67.785 15.4226C67.7761 15.3585 67.7433 15.3002 67.6933 15.2592C65.52 13.512 63.0709 12.6648 60.2091 12.6648C55.9993 12.6648 53.0608 15.1896 53.0608 18.8064C53.0608 22.6824 55.5963 24.0552 59.9788 25.1136C63.7065 25.9728 64.3374 26.6928 64.3374 27.9816C64.3374 29.4072 63.0661 30.2928 61.0151 30.2928C58.7411 30.2928 56.8868 29.5248 54.8095 27.7296C54.7575 27.6854 54.6905 27.663 54.6224 27.6672C54.5886 27.6698 54.5556 27.6792 54.5255 27.6949C54.4954 27.7106 54.4688 27.7322 54.4473 27.7584L52.3124 30.2976C52.2688 30.3482 52.2472 30.4141 52.2521 30.4807C52.2571 30.5473 52.2882 30.6092 52.3388 30.6528C54.6909 32.7849 57.7548 33.9603 60.9288 33.948C65.4624 33.948 68.3937 31.4688 68.3937 27.6336C68.3937 24.3912 66.4579 22.5984 61.7084 21.4416V21.444ZM22.8051 0.731995C16.8185 0.731995 11.0771 3.11137 6.84398 7.34669C2.61083 11.582 0.232666 17.3263 0.232666 23.316C0.232666 29.3056 2.61083 35.05 6.84398 39.2853C11.0771 43.5206 16.8185 45.9 22.8051 45.9C28.7917 45.9 34.5331 43.5206 38.7662 39.2853C42.9994 35.05 45.3775 29.3056 45.3775 23.316C45.3775 17.3263 42.9994 11.582 38.7662 7.34669C34.5331 3.11137 28.7917 0.731995 22.8051 0.731995ZM33.1582 33.3048C33.062 33.4629 32.9356 33.6006 32.7862 33.7097C32.6368 33.8189 32.4673 33.8975 32.2874 33.9409C32.1076 33.9844 31.9209 33.9919 31.7381 33.9631C31.5554 33.9342 31.3801 33.8696 31.2224 33.7728C25.9211 30.5328 19.2525 29.8008 11.3941 31.596C11.2141 31.6371 11.0278 31.6424 10.8457 31.6114C10.6636 31.5805 10.4895 31.514 10.3331 31.4157C10.1767 31.3174 10.0412 31.1893 9.93436 31.0386C9.82748 30.888 9.75132 30.7177 9.71021 30.5376C9.6691 30.3575 9.66385 30.171 9.69477 29.9889C9.72568 29.8067 9.79215 29.6324 9.89038 29.476C9.98862 29.3195 10.1167 29.184 10.2673 29.0771C10.4179 28.9701 10.588 28.8939 10.7681 28.8528C19.3653 26.8848 26.7415 27.732 32.6904 31.3704C33.3525 31.776 33.5612 32.6424 33.1582 33.3048ZM35.9168 27.156C35.6727 27.5533 35.2811 27.8376 34.8278 27.9465C34.3745 28.0554 33.8966 27.9799 33.4988 27.7368C27.4323 24.0048 18.1827 22.9248 11.0055 25.104C10.5689 25.2076 10.1091 25.1408 9.72003 24.917C9.33092 24.6933 9.04175 24.3295 8.91144 23.8998C8.78114 23.4701 8.81951 23.0069 9.01874 22.6045C9.21797 22.2022 9.56306 21.891 9.98367 21.7344C18.1827 19.2456 28.3726 20.4528 35.3387 24.7344C35.536 24.8553 35.7075 25.014 35.8435 25.2013C35.9794 25.3886 36.0772 25.6009 36.1311 25.826C36.185 26.0511 36.194 26.2847 36.1577 26.5133C36.1213 26.7419 36.0403 26.9611 35.9192 27.1584L35.9168 27.156ZM36.1591 20.7528C28.8812 16.4304 16.8777 16.032 9.93329 18.144C9.6668 18.2291 9.38606 18.2603 9.1074 18.2358C8.82874 18.2114 8.55772 18.1318 8.31008 18.0016C8.06244 17.8715 7.84312 17.6934 7.66488 17.4777C7.48664 17.262 7.35302 17.013 7.27179 16.7452C7.19057 16.4773 7.16336 16.196 7.19174 15.9176C7.22012 15.6392 7.30352 15.3692 7.43711 15.1233C7.5707 14.8774 7.7518 14.6605 7.96989 14.4853C8.18799 14.31 8.43872 14.1799 8.70752 14.1024C16.6786 11.6784 29.9342 12.1488 38.3084 17.1216C38.79 17.4074 39.1384 17.8729 39.2769 18.4157C39.4155 18.9585 39.3328 19.5341 39.0472 20.016C38.7615 20.4978 38.2963 20.8464 37.7537 20.985C37.2112 21.1237 36.6359 21.041 36.1543 20.7552" fill="white"/>
</svg>
