<svg width="16" height="16" viewBox="0 0 16 16" fill="none" xmlns="http://www.w3.org/2000/svg">
<g clip-path="url(#clip0_1116_562)">
<path d="M8.12401 3H7.14032V8H10.0914V7H8.12401V3ZM7.63315 0C5.67646 0 3.79991 0.790176 2.41632 2.1967C1.03273 3.60322 0.255432 5.51088 0.255432 7.5C0.255432 9.48912 1.03273 11.3968 2.41632 12.8033C3.79991 14.2098 5.67646 15 7.63315 15C9.58984 15 11.4664 14.2098 12.85 12.8033C14.2336 11.3968 15.0109 9.48912 15.0109 7.5C15.0109 5.51088 14.2336 3.60322 12.85 2.1967C11.4664 0.790176 9.58984 0 7.63315 0V0ZM7.63315 14C4.10758 14 1.23913 11.084 1.23913 7.5C1.23913 3.916 4.10758 1 7.63315 1C11.1587 1 14.0272 3.916 14.0272 7.5C14.0272 11.084 11.1587 14 7.63315 14Z" fill="#B3B3B3"/>
</g>
<defs>
<clipPath id="clip0_1116_562">
<rect width="15.7391" height="16" fill="white" transform="translate(0.255432)"/>
</clipPath>
</defs>
</svg>
