<svg width="200" height="200" viewBox="0 0 200 200" fill="none" xmlns="http://www.w3.org/2000/svg">
<rect width="200" height="200" fill="url(#paint0_linear_1_3)"/>
<g clip-path="url(#clip0_1_3)">
<path fill-rule="evenodd" clip-rule="evenodd" d="M87.4783 74.4043V113.865C85.18 111.022 81.6696 109.196 77.7391 109.196C70.8348 109.196 65.2174 114.813 65.2174 121.717C65.2174 128.622 70.8348 134.239 77.7391 134.239C84.6435 134.239 90.2609 128.622 90.2609 121.717V76.6565L132 67.7826V105.391C129.703 102.548 126.193 100.722 122.261 100.722C115.357 100.722 109.739 106.339 109.739 113.243C109.739 120.148 115.357 125.765 122.261 125.765C129.165 125.765 134.783 120.148 134.783 113.243V64.3478L87.4783 74.4043ZM77.7391 131.457C72.3687 131.457 68 127.087 68 121.717C68 116.346 72.3687 111.978 77.7391 111.978C83.1096 111.978 87.4783 116.346 87.4783 121.717C87.4783 127.086 83.1078 131.457 77.7391 131.457ZM122.261 122.983C116.89 122.983 112.522 118.614 112.522 113.243C112.522 107.875 116.89 103.504 122.261 103.504C127.631 103.504 132 107.875 132 113.243C132 118.616 127.63 122.983 122.261 122.983Z" fill="white"/>
</g>
<defs>
<linearGradient id="paint0_linear_1_3" x1="-8.62239e-07" y1="52.6087" x2="200" y2="200" gradientUnits="userSpaceOnUse">
<stop stop-color="#450AF5"/>
<stop offset="0.38056" stop-color="#572BF1"/>
<stop offset="0.786806" stop-color="#725CEB"/>
<stop offset="1" stop-color="#8E8EE5"/>
</linearGradient>
<clipPath id="clip0_1_3">
<rect width="69.5652" height="70.4348" fill="white" transform="translate(65.2174 64.3478)"/>
</clipPath>
</defs>
</svg>
