<svg width="16" height="14" viewBox="0 0 16 14" fill="none" xmlns="http://www.w3.org/2000/svg">
<path d="M12.945 0.379028L12.293 1.14203C13.87 2.60403 14.863 4.68603 14.863 7.00003C14.863 9.31403 13.869 11.396 12.293 12.858L12.944 13.621C13.8641 12.781 14.5991 11.7583 15.102 10.6184C15.6048 9.47844 15.8646 8.24619 15.8647 7.00025C15.8648 5.75431 15.6052 4.52202 15.1025 3.382C14.5998 2.24197 13.865 1.21924 12.945 0.379028ZM10.673 3.03903L10.022 3.80203C10.4467 4.21945 10.784 4.71729 11.0143 5.26648C11.2445 5.81568 11.363 6.40524 11.3629 7.00074C11.3628 7.59624 11.2441 8.18576 11.0137 8.73488C10.7833 9.28401 10.4458 9.78174 10.021 10.199L10.672 10.962C11.712 9.96203 12.363 8.55803 12.363 7.00103C12.363 5.44403 11.713 4.03903 10.673 3.03903ZM0 4.00003V10H2.804L8 13V1.00003L2.804 4.00003H0ZM7 2.73203V11.268L3.072 9.00003H1V5.00003H3.072L7 2.73203Z" fill="#B3B3B3"/>
</svg>
