<svg width="24" height="4" viewBox="0 0 24 4" fill="none" xmlns="http://www.w3.org/2000/svg">
<path d="M1.99799 -0.000976562C1.46742 -0.000843954 0.958638 0.21005 0.583566 0.58531C0.208493 0.96057 -0.00214671 1.46946 -0.0020141 2.00002C-0.00188149 2.53059 0.209012 3.03937 0.584272 3.41444C0.959532 3.78952 1.46842 4.00016 1.99899 4.00002C2.52942 3.99989 3.03807 3.78905 3.41305 3.41388C3.78803 3.03872 3.99862 2.52996 3.99849 1.99952C3.99835 1.46909 3.78751 0.960436 3.41235 0.585457C3.03718 0.210478 2.52842 -0.000108758 1.99799 2.38419e-05V-0.000976562ZM11.999 -0.000976562C11.4684 -0.000843954 10.9596 0.21005 10.5846 0.58531C10.2095 0.96057 9.99885 1.46946 9.99899 2.00002C9.99912 2.53059 10.21 3.03937 10.5853 3.41444C10.9605 3.78952 11.4694 4.00016 12 4.00002C12.5304 4.00002 13.0391 3.78931 13.4142 3.41424C13.7893 3.03916 14 2.53046 14 2.00002C14 1.46959 13.7893 0.960883 13.4142 0.585811C13.0391 0.210738 12.5304 2.38419e-05 12 2.38419e-05L11.999 -0.000976562ZM22 -0.000976562C21.4694 -0.000843954 20.9606 0.21005 20.5856 0.58531C20.2105 0.96057 19.9999 1.46946 20 2.00002C20.0001 2.53059 20.211 3.03937 20.5863 3.41444C20.9615 3.78952 21.4704 4.00016 22.001 4.00002C22.5314 3.99989 23.0401 3.78905 23.4151 3.41388C23.79 3.03872 24.0006 2.52996 24.0005 1.99952C24.0004 1.46909 23.7895 0.960436 23.4143 0.585457C23.0392 0.210478 22.5304 -0.000108758 22 2.38419e-05V-0.000976562Z" fill="white"/>
</svg>
