<svg width="22" height="20" viewBox="0 0 22 20" fill="none" xmlns="http://www.w3.org/2000/svg">
<path d="M19.6955 2.09052C18.621 1.00638 17.1783 0.365642 15.6535 0.295348C14.1287 0.225054 12.6332 0.730344 11.4635 1.71102C11.329 1.81256 11.1669 1.87112 10.9985 1.87902C10.8291 1.87408 10.6657 1.81522 10.532 1.71102C9.36283 0.729786 7.86742 0.224119 6.34268 0.294423C4.81795 0.364727 3.37541 1.00586 2.3015 2.09052C1.1465 3.24552 0.510498 4.78152 0.510498 6.41502C0.510498 8.04852 1.1465 9.58452 2.2625 10.6975L8.9555 18.532C9.2077 18.8279 9.52112 19.0655 9.8741 19.2284C10.2271 19.3914 10.6112 19.4757 11 19.4757C11.3888 19.4757 11.7729 19.3914 12.1259 19.2284C12.4789 19.0655 12.7923 18.8279 13.0445 18.532L19.697 10.7395C20.2668 10.173 20.7186 9.49905 21.0263 8.75676C21.334 8.01447 21.4914 7.21854 21.4895 6.41502C21.4908 5.61145 21.3329 4.81558 21.025 4.07334C20.7171 3.3311 20.2652 2.6572 19.6955 2.09052Z" fill="#1DB954"/>
</svg>
