<svg width="28" height="26" viewBox="0 0 28 26" fill="none" xmlns="http://www.w3.org/2000/svg">
<path d="M25.672 2.57303C24.2757 1.16407 22.4006 0.331674 20.419 0.241087C18.4373 0.1505 16.4941 0.808344 14.975 2.08403C14.971 2.08703 14.55 2.43403 14 2.43403C13.436 2.43403 13.035 2.09303 13.021 2.08003C11.5017 0.80601 9.55905 0.149558 7.57837 0.240877C5.59768 0.332196 3.72367 1.16462 2.32803 2.57303C1.58779 3.30922 1.00089 4.18489 0.601292 5.14938C0.201695 6.11388 -0.00266901 7.14804 2.63174e-05 8.19203C2.63174e-05 10.315 0.827026 12.31 2.30103 13.782L11.567 24.63C11.8671 24.9823 12.24 25.2652 12.6601 25.4591C13.0801 25.6531 13.5373 25.7536 14 25.7536C14.4627 25.7536 14.9199 25.6531 15.34 25.4591C15.7601 25.2652 16.133 24.9823 16.433 24.63L25.672 13.811C26.4124 13.075 26.9995 12.1993 27.3991 11.2348C27.7987 10.2703 28.0029 9.23605 28 8.19203C28.0027 7.14804 27.7984 6.11388 27.3988 5.14938C26.9992 4.18489 26.4123 3.30922 25.672 2.57303ZM24.938 13.133L15.672 23.981C14.835 24.96 13.164 24.96 12.326 23.981L3.03503 13.104C2.38783 12.4605 1.87472 11.6951 1.52541 10.8519C1.17609 10.0088 0.997521 9.10468 1.00003 8.19203C0.997521 7.27938 1.17609 6.3753 1.52541 5.53215C1.87472 4.68899 2.38783 3.92351 3.03503 3.28003C3.67871 2.63193 4.4441 2.11737 5.28722 1.76591C6.13034 1.41445 7.03459 1.23302 7.94803 1.23203C9.56364 1.23238 11.1278 1.80048 12.367 2.83703C12.8259 3.21898 13.403 3.42997 14 3.43403C14.914 3.43403 15.555 2.90403 15.619 2.84903C16.9469 1.73544 18.6449 1.16165 20.3761 1.24149C22.1073 1.32132 23.7452 2.04895 24.965 3.28003C26.277 4.59303 27 6.33703 27 8.19203C27 10.047 26.277 11.792 24.938 13.133Z" fill="white"/>
</svg>
