<svg width="37" height="44" viewBox="0 0 37 44" fill="none" xmlns="http://www.w3.org/2000/svg">
<path d="M2.69124 44C1.20488 44 -0.0192126 42.7893 0.185234 41.3171C0.74729 37.2697 2.57074 33.4897 5.41847 30.565C8.88789 27.0018 13.5934 25 18.4999 25C23.4064 25 28.112 27.0018 31.5814 30.565C34.4291 33.4897 36.2526 37.2697 36.8147 41.3171C37.0191 42.7893 35.795 44 34.3086 44V44C32.8223 44 31.644 42.7838 31.3563 41.3256C30.8482 38.749 29.6123 36.3605 27.7754 34.4739C25.3154 31.9474 21.9789 30.5281 18.4999 30.5281C15.021 30.5281 11.6845 31.9474 9.22453 34.4739C7.38759 36.3605 6.15174 38.749 5.64355 41.3256C5.35593 42.7838 4.1776 44 2.69124 44V44Z" fill="#D9D9D9"/>
<rect x="16" width="5" height="25" rx="2.5" fill="#6E6E6E"/>
<rect x="6" y="15" width="5" height="25" rx="2.5" transform="rotate(-90 6 15)" fill="#6E6E6E"/>
</svg>
